<?xml version="1.0" encoding="UTF-8" standalone="no"?>
<svg xmlns="http://www.w3.org/2000/svg" version="1.0" width="2195.000000pt" height="1887.000000pt" viewBox="0 0 2195.000000 1887.000000" preserveAspectRatio="xMidYMid meet">
    <metadata>Another Lightning Component by Demand Chain (Twin Cities, Minnesota Salesforce Partner)</metadata>
    <g transform="translate(0.000000,1887.000000) scale(0.100000,-0.100000)" fill="#942121" stroke="none">
        <path d="M9031 18268 c-151 -156 -361 -371 -467 -479 l-192 -196 -156 43 c-896 247 -1649 293 -2268 138 -418 -105 -785 -301 -1093 -584 -34 -30 -116 -97 -183 -149 -388 -297 -876 -775 -1073 -1051 -76 -106 -212 -247 -314 -327 -115 -88 -743 -726 -842 -854 -358 -461 -573 -1021 -658 -1709 -23 -181 -31 -696 -16 -913 56 -767 278 -1572 627 -2269 89 -178 195 -371 200 -365 2 2 0 99 -4 215 -26 635 58 1270 284 2152 36 140 63 266 61 280 -2 14 -41 167 -85 340 -117 455 -173 729 -219 1075 -25 190 -25 677 0 830 40 242 112 464 215 659 l59 111 87 49 c48 27 89 46 91 44 3 -3 -15 -48 -40 -100 -263 -556 -303 -1250 -114 -2017 44 -178 155 -531 167 -531 5 0 16 24 27 53 64 182 249 575 390 831 249 452 597 978 837 1264 l70 83 -31 252 c-37 297 -37 307 -13 307 105 0 582 -114 857 -205 177 -58 544 -198 599 -227 26 -14 118 83 -972 -1036 -157 -161 -283 -294 -281 -296 2 -2 114 -9 249 -16 684 -31 1588 -114 2530 -230 1322 -164 2436 -364 3214 -577 109 -29 201 -53 205 -51 7 3 -57 320 -239 1188 -391 1862 -754 3290 -1039 4083 -66 184 -181 467 -190 467 -4 0 -130 -127 -280 -282z m-3596 -1753 c646 -75 1391 -373 2327 -932 114 -68 209 -126 211 -131 3 -4 -47 -56 -111 -115 -177 -163 -648 -630 -1034 -1025 l-346 -352 -248 44 c-137 25 -330 56 -429 71 -99 14 -183 27 -187 28 -12 4 266 285 602 607 331 317 619 607 620 623 0 10 -412 212 -622 306 -688 307 -1270 460 -1745 461 l-91 0 14 62 c8 34 31 110 50 169 l36 106 106 26 c108 27 253 53 327 60 110 10 403 6 520 -8z"/>
        <path d="M13680 18544 c-155 -9 -364 -26 -470 -40 -778 -99 -1547 -351 -2232 -732 -134 -74 -168 -101 -110 -88 58 14 623 19 795 7 454 -32 952 -117 1534 -262 l282 -70 226 61 c1169 315 1833 364 2405 175 74 -25 195 -75 268 -112 108 -54 138 -73 157 -102 23 -38 75 -137 75 -145 0 -2 -49 18 -109 44 -209 94 -440 159 -696 197 -150 22 -595 25 -755 5 -243 -30 -458 -73 -690 -138 -139 -39 -391 -122 -402 -133 -4 -3 69 -37 162 -74 630 -250 1446 -727 1978 -1154 l103 -83 277 34 c152 20 278 33 281 30 3 -3 -7 -79 -22 -168 -48 -286 -141 -623 -262 -952 -68 -184 -145 -374 -152 -374 -2 0 -302 285 -666 634 -364 349 -663 633 -665 631 -2 -2 -8 -113 -13 -247 -16 -429 -65 -1095 -125 -1698 -168 -1698 -426 -3274 -681 -4163 -13 -49 -23 -90 -21 -91 4 -3 954 198 1483 314 1759 386 3032 722 3799 1001 245 90 457 180 454 194 -2 6 -218 217 -481 469 -341 327 -476 463 -473 475 55 176 154 607 190 826 53 315 61 419 61 770 -1 345 -9 445 -56 674 -95 463 -303 875 -614 1212 -33 36 -117 137 -186 225 -308 389 -792 870 -1051 1045 -86 58 -223 188 -297 282 -109 138 -654 674 -827 812 -489 394 -1120 629 -1864 695 -126 11 -507 20 -610 14z m3977 -2665 l91 -30 22 -80 c135 -500 95 -1031 -126 -1679 -160 -472 -403 -971 -777 -1600 -44 -74 -81 -136 -83 -138 -1 -2 -40 36 -85 85 -225 238 -722 729 -1352 1333 l-67 65 50 300 c28 165 59 363 69 440 l19 140 538 -541 c548 -549 686 -684 702 -684 10 0 216 426 307 635 292 669 426 1170 442 1646 l6 176 76 -19 c42 -10 117 -32 168 -49z"/>
        <path d="M7160 9323 c-162 -35 -477 -101 -700 -149 -1949 -414 -3432 -794 -4253 -1090 -265 -96 -487 -189 -487 -204 0 -4 215 -213 477 -465 263 -253 477 -464 477 -469 -1 -6 -31 -129 -67 -272 -230 -908 -253 -1619 -72 -2238 105 -361 294 -698 542 -967 43 -47 113 -132 157 -188 130 -171 309 -374 516 -585 222 -225 381 -370 543 -491 155 -115 244 -198 337 -314 79 -98 637 -651 775 -768 991 -842 2672 -988 4345 -379 299 109 716 303 940 436 l85 50 -150 -7 c-675 -35 -1348 47 -2241 272 l-257 65 -244 -65 c-1107 -297 -1751 -351 -2304 -196 -138 39 -237 79 -380 152 l-116 60 -47 90 c-26 49 -45 89 -43 89 2 0 42 -17 88 -39 209 -96 438 -163 690 -203 194 -30 610 -32 824 -5 168 22 398 66 555 107 145 37 500 152 500 160 0 4 -51 26 -112 50 -629 241 -1538 771 -2062 1203 -38 31 -73 57 -79 57 -5 0 -116 -13 -246 -30 -130 -16 -253 -32 -273 -34 l-38 -4 6 41 c38 260 116 582 209 862 62 187 209 572 224 588 5 5 307 -278 672 -629 l664 -637 12 269 c82 1875 437 4477 784 5747 27 100 48 184 47 187 -2 3 -136 -23 -298 -57z m-2248 -2840 c222 -237 922 -928 1365 -1348 l52 -50 -43 -250 c-24 -137 -54 -324 -66 -415 -12 -91 -26 -174 -30 -185 -6 -17 -23 -4 -131 100 -68 65 -290 289 -494 497 -359 367 -596 598 -613 598 -10 0 -217 -420 -300 -610 -252 -574 -395 -1050 -442 -1465 -5 -49 -10 -154 -10 -232 0 -130 -2 -143 -18 -143 -23 0 -149 34 -245 67 l-77 27 -20 65 c-53 180 -80 389 -80 613 0 700 304 1538 953 2631 61 103 113 187 114 187 1 0 40 -39 85 -87z"/>
        <path d="M19010 9355 c0 -11 5 -108 10 -215 30 -561 -59 -1241 -271 -2082 -47 -184 -79 -331 -76 -347 3 -14 43 -177 90 -361 235 -924 289 -1481 191 -1985 -42 -213 -132 -455 -229 -614 -32 -54 -44 -63 -125 -105 l-89 -46 51 106 c106 226 191 544 219 817 15 156 7 583 -15 742 -22 157 -78 431 -116 570 -40 146 -132 425 -139 425 -3 0 -24 -46 -45 -103 -225 -591 -746 -1475 -1194 -2027 l-86 -104 12 -101 c6 -55 21 -180 32 -279 11 -98 19 -180 18 -182 -8 -7 -306 49 -453 86 -211 52 -392 108 -605 185 -200 73 -431 167 -434 176 0 4 285 300 634 659 349 359 636 655 638 659 1 4 -118 12 -265 19 -502 22 -1155 77 -1883 157 -1667 185 -3084 431 -3993 694 l-69 20 7 -27 c4 -15 51 -243 105 -507 505 -2461 880 -3963 1212 -4855 56 -149 136 -341 147 -353 4 -4 218 208 475 472 l467 479 67 -19 c388 -113 858 -206 1212 -240 164 -16 564 -16 715 0 575 60 1065 261 1454 597 63 55 157 132 210 173 435 334 924 812 1129 1101 67 95 185 217 298 308 104 84 680 657 781 777 402 477 636 1059 730 1815 22 182 26 803 5 1000 -78 754 -269 1434 -588 2099 -76 158 -186 365 -221 416 -13 19 -13 19 -13 0z m-3620 -4444 c214 -37 426 -71 553 -88 l58 -8 -283 -281 c-156 -154 -401 -394 -545 -533 -292 -281 -411 -407 -397 -421 5 -5 108 -58 229 -118 865 -430 1557 -642 2093 -642 99 0 122 -3 122 -14 0 -20 -65 -243 -84 -288 -17 -40 -42 -51 -193 -82 -669 -141 -1418 18 -2393 510 -323 163 -924 507 -918 526 2 3 95 94 208 201 113 106 448 440 745 740 420 425 544 546 560 542 11 -2 121 -22 245 -44z"/>
    </g>
</svg>